<svg version="1.1" id="Layer_1" xmlns="http://www.w3.org/2000/svg" xmlns:xlink="http://www.w3.org/1999/xlink" x="0px" y="0px" viewBox="0 0 500 500" style="width: 188px;" xml:space="preserve" data-imageid="network-69" imageName="Network" class="illustrations_image">
<style type="text/css">
	.st0_network-69{fill:#68E1FD;}
	.st1_network-69{fill:#FFFFFF;}
	.st2_network-69{fill:#231F20;}
	.st3_network-69{fill:#D1D3D4;}
</style>
<path id="Connecting_Round_Line_network-69" class="st0_network-69 targetColor" d="M251.1,396.4c-79.1,0-143.5-64.4-143.5-143.5S172,109.4,251.1,109.4&#10;&#9;s143.5,64.4,143.5,143.5S330.2,396.4,251.1,396.4z M251.1,117.8c-74.5,0-135.1,60.6-135.1,135.1S176.6,388,251.1,388&#10;&#9;s135.1-60.6,135.1-135.1S325.5,117.8,251.1,117.8z" style="fill: rgb(46, 133, 85);"/>
<g id="Laptop_network-69">
	<path class="st1_network-69" d="M337.7,219.4h87.2c3.6,0,6.5,2.9,6.5,6.5v53.2l0,0H331.2l0,0v-53.2C331.2,222.3,334.1,219.4,337.7,219.4z"/>
	<path class="st2_network-69" d="M431.4,279.8H331.1c-0.3,0-0.6-0.3-0.6-0.6v-53.2c0-4,3.2-7.2,7.2-7.2h87.2c3.9,0,7.1,3.2,7.1,7.2v53.2&#10;&#9;&#9;C432,279.5,431.7,279.8,431.4,279.8z M331.8,278.5h99v-52.6c0-3.3-2.6-5.9-5.9-5.9l0,0h-87.2c-3.3,0-5.9,2.6-5.9,5.9v0V278.5z"/>
	<path class="st3_network-69" d="M425.1,279.9h-87.7c-0.4,0-0.7-0.3-0.7-0.7v-54.4c0-0.4,0.3-0.7,0.7-0.7l0,0h87.7c0.4,0,0.7,0.3,0.7,0.7&#10;&#9;&#9;c0,0,0,0,0,0v54.4C425.8,279.5,425.5,279.9,425.1,279.9L425.1,279.9z M338.1,278.5h86.3v-53h-86.3L338.1,278.5z"/>
	<path class="st2_network-69" d="M439.8,279.9h-117c-0.4,0-0.7-0.3-0.7-0.7l0,0c0-0.4,0.3-0.7,0.7-0.7h117c0.4,0,0.7,0.3,0.7,0.7c0,0,0,0,0,0&#10;&#9;&#9;C440.5,279.6,440.2,279.9,439.8,279.9C439.8,279.9,439.8,279.9,439.8,279.9z"/>
	<path class="st1_network-69" d="M320.7,279.1h121.1l0,0l0,0c0,4-3.2,7.2-7.2,7.2H328C324,286.4,320.8,283.2,320.7,279.1L320.7,279.1&#10;&#9;&#9;L320.7,279.1z"/>
	<path class="st2_network-69" d="M434.6,287H328c-4.4,0-7.9-3.5-7.9-7.9c0-0.4,0.3-0.6,0.6-0.6h0h121.1c0.4,0,0.6,0.3,0.6,0.6v0&#10;&#9;&#9;C442.5,283.5,438.9,287,434.6,287z M321.4,279.8c0.3,3.4,3.2,6,6.6,6h106.6c3.4,0,6.3-2.6,6.6-6H321.4z"/>
	<rect x="371.5" y="279.1" class="st2_network-69" width="19.6" height="1.8"/>
</g>
<g id="server_network-69">
	<rect x="210.5" y="337.4" class="st2_network-69" width="81.1" height="75.9"/>
	<path class="st2_network-69" d="M291.6,414h-81.1c-0.4,0-0.7-0.3-0.7-0.7l0,0v-75.9c0-0.4,0.3-0.7,0.7-0.7h81.1c0.4,0,0.7,0.3,0.7,0.7v75.9&#10;&#9;&#9;C292.4,413.6,292.1,414,291.6,414C291.7,414,291.6,414,291.6,414z M211.2,412.6h79.7v-74.5h-79.7V412.6z"/>
	<path class="st1_network-69" d="M210.5,398.4h81.1c3.6,0,6.5,2.9,6.5,6.5v13.7c0,3.6-2.9,6.5-6.5,6.5h-81.1c-3.6,0-6.5-2.9-6.5-6.5v-13.7&#10;&#9;&#9;C204.1,401.3,207,398.4,210.5,398.4z"/>
	<path class="st2_network-69" d="M291.6,425.8h-81.1c-4,0-7.2-3.2-7.2-7.2v-13.7c0-4,3.2-7.2,7.2-7.2l0,0h81.1c4,0,7.2,3.2,7.2,7.2l0,0v13.7&#10;&#9;&#9;C298.8,422.6,295.6,425.8,291.6,425.8z M210.6,399.2c-3.2,0-5.7,2.6-5.8,5.7v13.7c0,3.2,2.6,5.7,5.8,5.7h81.1&#10;&#9;&#9;c3.2,0,5.7-2.6,5.8-5.7v-13.7c0-3.2-2.6-5.7-5.8-5.7H210.6z"/>
	<path class="st1_network-69" d="M210.5,366h81.1c3.6,0,6.5,2.9,6.5,6.5v13.7c0,3.6-2.9,6.5-6.5,6.5h-81.1c-3.6,0-6.5-2.9-6.5-6.5v-13.7&#10;&#9;&#9;C204.1,368.9,207,366,210.5,366z"/>
	<path class="st2_network-69" d="M291.6,393.3h-81.1c-4,0-7.2-3.2-7.2-7.2v-13.7c0-4,3.2-7.2,7.2-7.2h81.1c4,0,7.2,3.2,7.2,7.2v13.7&#10;&#9;&#9;C298.8,390.1,295.6,393.3,291.6,393.3z M210.6,366.7c-3.2,0-5.7,2.6-5.8,5.7v13.7c0,3.2,2.6,5.7,5.8,5.7h81.1&#10;&#9;&#9;c3.2,0,5.7-2.6,5.8-5.7v-13.7c0-3.2-2.6-5.7-5.8-5.7H210.6z"/>
	<path class="st1_network-69" d="M210.5,333.5h81.1c3.6,0,6.5,2.9,6.5,6.5v13.7c0,3.6-2.9,6.5-6.5,6.5h-81.1c-3.6,0-6.5-2.9-6.5-6.5V340&#10;&#9;&#9;C204.1,336.4,207,333.5,210.5,333.5z"/>
	<path class="st2_network-69" d="M291.6,360.9h-81.1c-4,0-7.2-3.2-7.2-7.2V340c0-4,3.2-7.2,7.2-7.2h81.1c4,0,7.2,3.2,7.2,7.2v13.7&#10;&#9;&#9;C298.8,357.7,295.6,360.9,291.6,360.9z M210.6,334.2c-3.2,0-5.8,2.6-5.8,5.8v13.7c0,3.2,2.6,5.7,5.8,5.7h81.1&#10;&#9;&#9;c3.2,0,5.7-2.6,5.8-5.7V340c0-3.2-2.6-5.7-5.8-5.7L210.6,334.2z"/>
	<circle class="st1_network-69" cx="215.7" cy="342.8" r="1.8"/>
	<path class="st3_network-69" d="M215.7,345.3c-1.4,0-2.5-1.1-2.5-2.5c0-1.4,1.1-2.5,2.5-2.5c1.4,0,2.5,1.1,2.5,2.5S217.1,345.3,215.7,345.3&#10;&#9;&#9;L215.7,345.3z M215.7,341.7c-0.6,0-1.1,0.5-1.1,1.1c0,0.6,0.5,1.1,1.1,1.1s1.1-0.5,1.1-1.1l0,0&#10;&#9;&#9;C216.8,342.2,216.3,341.7,215.7,341.7z"/>
	<circle class="st1_network-69" cx="223.2" cy="342.8" r="1.8"/>
	<path class="st3_network-69" d="M223.2,345.3c-1.4,0-2.5-1.1-2.5-2.5c0-1.4,1.1-2.5,2.5-2.5c1.4,0,2.5,1.1,2.5,2.5&#10;&#9;&#9;C225.7,344.2,224.6,345.3,223.2,345.3z M223.2,341.7c-0.6,0-1.1,0.5-1.1,1.1c0,0.6,0.5,1.1,1.1,1.1s1.1-0.5,1.1-1.1&#10;&#9;&#9;C224.3,342.2,223.8,341.7,223.2,341.7z"/>
	<circle class="st1_network-69" cx="230.8" cy="342.8" r="1.8"/>
	<path class="st3_network-69" d="M230.8,345.3c-1.4,0-2.5-1.1-2.5-2.5c0-1.4,1.1-2.5,2.5-2.5c1.4,0,2.5,1.1,2.5,2.5&#10;&#9;&#9;C233.2,344.2,232.1,345.3,230.8,345.3z M230.8,341.7c-0.6,0-1.1,0.5-1.1,1.1c0,0.6,0.5,1.1,1.1,1.1s1.1-0.5,1.1-1.1&#10;&#9;&#9;C231.8,342.2,231.4,341.7,230.8,341.7z"/>
</g>
<g id="Desktop_network-69">
	<path class="st1_network-69" d="M71.9,192.1h94.3c2,0,3.6,1.6,3.6,3.6v64.7c0,2-1.6,3.6-3.6,3.6H71.9c-2,0-3.6-1.6-3.6-3.6v-64.7&#10;&#9;&#9;C68.3,193.7,69.9,192.1,71.9,192.1z"/>
	<path class="st2_network-69" d="M166.2,264.6H71.9c-2.4,0-4.3-1.9-4.3-4.3v-64.7c0-2.4,1.9-4.3,4.3-4.3h94.3c2.4,0,4.3,1.9,4.3,4.3v64.7&#10;&#9;&#9;C170.5,262.7,168.6,264.6,166.2,264.6z M71.9,192.8c-1.6,0-2.9,1.2-2.9,2.8c0,0,0,0,0,0v64.7c0,1.6,1.3,2.9,2.9,2.9l0,0h94.3&#10;&#9;&#9;c1.6,0,2.9-1.3,2.9-2.9v-64.7c0-1.6-1.3-2.9-2.9-2.9L71.9,192.8z"/>
	<path class="st3_network-69" d="M166.1,259.6h-94c-0.4,0-0.7-0.3-0.7-0.7l0,0v-61.9c0-0.4,0.3-0.7,0.7-0.7h94c0.4,0,0.7,0.3,0.7,0.7V259&#10;&#9;&#9;C166.7,259.4,166.4,259.6,166.1,259.6z M72.8,258.2h92.6v-60.5H72.8V258.2z"/>
	<polygon class="st1_network-69" points="134.2,274.4 104,274.4 107.4,264 130.8,264 &#9;"/>
	<path class="st2_network-69" d="M134.2,275.1H104c-0.2,0-0.4-0.1-0.6-0.3c-0.1-0.2-0.2-0.4-0.1-0.6l3.4-10.4c0.1-0.3,0.4-0.5,0.7-0.5h23.4&#10;&#9;&#9;c0.3,0,0.6,0.2,0.7,0.5l3.4,10.4c0.1,0.2,0,0.5-0.1,0.6C134.6,275,134.4,275.1,134.2,275.1z M105,273.6h28.2l-2.9-9h-22.3&#10;&#9;&#9;L105,273.6z"/>
	<path class="st1_network-69" d="M101.5,274.4h35.2c0.8,0,1.5,0.7,1.5,1.5l0,0c0,0.8-0.7,1.5-1.5,1.5h-35.2c-0.8,0-1.5-0.7-1.5-1.5l0,0&#10;&#9;&#9;C100,275,100.7,274.4,101.5,274.4z"/>
	<path class="st2_network-69" d="M136.7,278h-35.2c-1.2,0.1-2.3-0.8-2.3-2c-0.1-1.2,0.8-2.3,2-2.3c0.1,0,0.2,0,0.3,0h35.2&#10;&#9;&#9;c1.2-0.1,2.3,0.8,2.3,2c0.1,1.2-0.8,2.3-2,2.3C136.9,278,136.8,278,136.7,278z M101.5,275.1c-0.4,0-0.7,0.3-0.8,0.8&#10;&#9;&#9;c0,0.4,0.3,0.7,0.8,0.7h35.2c0.4,0,0.7-0.3,0.7-0.7c0-0.4-0.3-0.7-0.7-0.8H101.5z"/>
	<path class="st2_network-69" d="M104.9,271.6c0.5-0.3,26.6-5,26.6-5l-0.9-2.6h-23.4L104.9,271.6z"/>
	<path class="st2_network-69" d="M104.8,272.3c-0.4,0-0.7-0.3-0.7-0.7c0-0.1,0-0.2,0.1-0.3l2.4-7.6c0.1-0.3,0.4-0.5,0.7-0.5h23.4&#10;&#9;&#9;c0.3,0,0.6,0.2,0.7,0.5l0.9,2.6c0.1,0.2,0,0.4-0.1,0.6c-0.1,0.2-0.3,0.3-0.5,0.3c-10.2,1.9-25.7,4.7-26.5,5&#10;&#9;&#9;C105.1,272.3,105,272.3,104.8,272.3z M107.8,264.6l-1.9,6c3.8-0.8,14.9-2.9,24.7-4.6l-0.4-1.4L107.8,264.6z"/>
	<path class="st1_network-69" d="M200.6,289c0,4.1-5.8,4-13,4s-13,0.1-13-4s5.8-10.8,13-10.8S200.6,285,200.6,289z"/>
	<path class="st2_network-69" d="M188.4,293.7h-1.2c-3,0.1-6-0.1-9-0.5c-1-0.2-4.2-0.9-4.2-4.2c0-4.5,6.1-11.5,13.7-11.5s13.6,6.9,13.6,11.4&#10;&#9;&#9;c0,3.3-3.2,4-4.2,4.2C194.2,293.7,191.3,293.8,188.4,293.7z M187.6,292.3h0.4c2.9,0.1,5.8-0.1,8.7-0.5c2.8-0.6,3.1-1.8,3.1-2.8&#10;&#9;&#9;c0-3.9-5.6-10-12.3-10s-12.3,6.2-12.3,10c0,1.1,0.4,2.2,3.1,2.8c2.9,0.4,5.8,0.6,8.7,0.5H187.6z"/>
	<path class="st2_network-69" d="M187.6,286.4c-0.4,0-0.7-0.3-0.7-0.7l0,0v-7.4c0-0.4,0.3-0.7,0.7-0.7s0.7,0.3,0.7,0.7c0,0,0,0,0,0v7.4&#10;&#9;&#9;C188.3,286,188,286.4,187.6,286.4C187.6,286.4,187.6,286.4,187.6,286.4z"/>
	<rect x="58.2" y="286.7" class="st1_network-69" width="104.9" height="4.9"/>
	<path class="st2_network-69" d="M163.1,292.4H58.2c-0.4,0-0.7-0.3-0.7-0.7l0,0v-4.9c0-0.4,0.3-0.7,0.7-0.7c0,0,0,0,0,0h104.9&#10;&#9;&#9;c0.4,0,0.7,0.3,0.7,0.7v4.9C163.8,292.1,163.5,292.4,163.1,292.4z M58.9,291h103.5v-3.5H58.9V291z"/>
	<rect x="63.7" y="284.4" class="st2_network-69" width="94.8" height="2.4"/>
	<path class="st2_network-69" d="M158.5,287.4H63.7c-0.4,0-0.7-0.3-0.7-0.7l0,0v-2.4c0-0.4,0.3-0.7,0.7-0.7c0,0,0,0,0,0h94.8&#10;&#9;&#9;c0.4,0,0.7,0.3,0.7,0.7l0,0v2.4C159.2,287.1,158.9,287.4,158.5,287.4C158.5,287.4,158.5,287.4,158.5,287.4z M64.4,286h93.4v-1H64.4&#10;&#9;&#9;V286z"/>
</g>
<g id="Smartphone_network-69">
	<path class="st1_network-69" d="M233.5,74.9h35.2c1.4,0,2.6,1.2,2.6,2.6v75.3c0,1.4-1.2,2.6-2.6,2.6h-35.2c-1.4,0-2.6-1.2-2.6-2.6V77.5&#10;&#9;&#9;C230.9,76.1,232.1,74.9,233.5,74.9z"/>
	<path class="st2_network-69" d="M268.7,156.1h-35.2c-1.8,0-3.3-1.5-3.3-3.3c0,0,0,0,0,0V77.5c0-1.8,1.5-3.3,3.3-3.3c0,0,0,0,0,0h35.2&#10;&#9;&#9;c1.8,0,3.3,1.4,3.3,3.2c0,0,0,0,0,0.1v75.3C272,154.6,270.5,156.1,268.7,156.1C268.7,156.1,268.7,156.1,268.7,156.1z M233.5,75.6&#10;&#9;&#9;c-1,0-1.9,0.8-1.9,1.9v75.3c0,1,0.8,1.9,1.9,1.9h35.2c1,0,1.9-0.8,1.9-1.9V77.5c0-1-0.8-1.9-1.9-1.9H233.5z"/>
	<path class="st3_network-69" d="M269.1,144.8H233c-0.4,0-0.7-0.3-0.7-0.7V82.2c0-0.4,0.3-0.7,0.7-0.7h36.1c0.4,0,0.7,0.3,0.7,0.7v0v61.9&#10;&#9;&#9;C269.8,144.5,269.5,144.8,269.1,144.8z M233.7,143.4h34.7V82.9h-34.7L233.7,143.4z"/>
	<path class="st1_network-69" d="M247.6,147.1h6.9c0.9,0,1.6,0.7,1.6,1.6v2.6c0,0.9-0.7,1.6-1.6,1.6h-6.9c-0.9,0-1.6-0.7-1.6-1.6v-2.6&#10;&#9;&#9;C246.1,147.8,246.8,147.1,247.6,147.1z"/>
	<path class="st3_network-69" d="M254.5,153.6h-6.9c-1.3,0-2.3-1-2.3-2.3v-2.6c0-1.3,1-2.3,2.3-2.3h6.9c1.3,0,2.3,1,2.3,2.3v2.6&#10;&#9;&#9;C256.8,152.6,255.8,153.6,254.5,153.6L254.5,153.6z M247.6,147.8c-0.5,0-0.9,0.4-0.9,0.9c0,0,0,0,0,0v2.6c0,0.5,0.4,0.9,0.9,0.9&#10;&#9;&#9;c0,0,0,0,0,0h6.9c0.5,0,0.9-0.4,0.9-0.9c0,0,0,0,0,0v-2.6c0-0.5-0.4-0.9-0.9-0.9c0,0,0,0,0,0H247.6z"/>
	<path class="st3_network-69" d="M254.7,79.1h-10.3c-0.4,0-0.7-0.3-0.7-0.7c0-0.4,0.3-0.7,0.7-0.7l0,0h10.3c0.4,0,0.7,0.3,0.7,0.7&#10;&#9;&#9;C255.4,78.8,255.1,79.1,254.7,79.1z"/>
	<path class="st3_network-69" d="M257.5,79.1h-1.4c-0.4,0-0.7-0.3-0.7-0.7c0-0.4,0.3-0.7,0.7-0.7l0,0h1.4c0.4,0,0.7,0.3,0.7,0.7&#10;&#9;&#9;C258.2,78.8,257.9,79.1,257.5,79.1z"/>
</g>
</svg>