<svg id="_0313_cleaning_pc" xmlns="http://www.w3.org/2000/svg" xmlns:xlink="http://www.w3.org/1999/xlink" viewBox="0 0 500 500" data-imageid="cleaning-computer-57" imageName="Cleaning Computer" class="illustrations_image" style="width: 188px;"><defs><style>.cls-1_cleaning-computer-57{fill:url(#linear-gradient);}.cls-1_cleaning-computer-57,.cls-2_cleaning-computer-57,.cls-3_cleaning-computer-57,.cls-4_cleaning-computer-57,.cls-5_cleaning-computer-57,.cls-6_cleaning-computer-57,.cls-7_cleaning-computer-57,.cls-8_cleaning-computer-57,.cls-9_cleaning-computer-57,.cls-10_cleaning-computer-57,.cls-11_cleaning-computer-57,.cls-12_cleaning-computer-57,.cls-13_cleaning-computer-57,.cls-14_cleaning-computer-57,.cls-15_cleaning-computer-57,.cls-16_cleaning-computer-57{stroke-width:0px;}.cls-2_cleaning-computer-57{opacity:.18;}.cls-2_cleaning-computer-57,.cls-3_cleaning-computer-57{isolation:isolate;}.cls-2_cleaning-computer-57,.cls-3_cleaning-computer-57,.cls-16_cleaning-computer-57{fill:#68e1fd;}.cls-3_cleaning-computer-57{opacity:.54;}.cls-4_cleaning-computer-57{fill:url(#linear-gradient-4-cleaning-computer-57);}.cls-5_cleaning-computer-57{fill:url(#linear-gradient-2-cleaning-computer-57);}.cls-6_cleaning-computer-57{fill:url(#linear-gradient-3-cleaning-computer-57);}.cls-7_cleaning-computer-57{fill:url(#linear-gradient-8-cleaning-computer-57);}.cls-8_cleaning-computer-57{fill:url(#linear-gradient-7-cleaning-computer-57);}.cls-9_cleaning-computer-57{fill:url(#linear-gradient-5-cleaning-computer-57);}.cls-10_cleaning-computer-57{fill:url(#linear-gradient-6-cleaning-computer-57);}.cls-11_cleaning-computer-57{fill:#575b85;}.cls-12_cleaning-computer-57{fill:#2e2e3f;}.cls-13_cleaning-computer-57{fill:#b55f40;}.cls-14_cleaning-computer-57{fill:#f3bdbb;}.cls-15_cleaning-computer-57{fill:#f5bbb9;}</style><linearGradient id="linear-gradient-cleaning-computer-57" x1="611.32" y1="3676.05" x2="611.99" y2="3784.72" gradientTransform="translate(-481.59 4141.35) scale(1 -1)" gradientUnits="userSpaceOnUse"><stop offset="0" stop-color="#231f20" stop-opacity="0"/><stop offset="1" stop-color="#231f20"/></linearGradient><linearGradient id="linear-gradient-2-cleaning-computer-57" x1="718.83" y1="3867.21" x2="729.93" y2="3667.48" gradientTransform="translate(-471 4173.82) scale(1 -1)" xlink:href="#linear-gradient-cleaning-computer-57"/><linearGradient id="linear-gradient-3-cleaning-computer-57" x1="713.9" y1="4112.35" x2="756.16" y2="3586.08" xlink:href="#linear-gradient-cleaning-computer-57"/><linearGradient id="linear-gradient-4-cleaning-computer-57" x1="631.15" y1="4113.88" x2="666.57" y2="3672.94" gradientTransform="translate(-471 4173.82) scale(1 -1)" xlink:href="#linear-gradient-cleaning-computer-57"/><linearGradient id="linear-gradient-5-cleaning-computer-57" x1="807.64" y1="4080.11" x2="843.05" y2="3639.14" xlink:href="#linear-gradient-cleaning-computer-57"/><linearGradient id="linear-gradient-6-cleaning-computer-57" x1="703.93" y1="3899.83" x2="731.93" y2="3788.35" gradientTransform="translate(-471 4173.82) scale(1 -1)" xlink:href="#linear-gradient-cleaning-computer-57"/><linearGradient id="linear-gradient-7-cleaning-computer-57" x1="528.07" y1="3845.98" x2="541.81" y2="3708.07" xlink:href="#linear-gradient-cleaning-computer-57"/><linearGradient id="linear-gradient-8-cleaning-computer-57" x1="642.7" y1="3890.92" x2="656.43" y2="3753.02" gradientTransform="translate(-471 4173.82) scale(1 -1)" xlink:href="#linear-gradient-cleaning-computer-57"/></defs><g id="background_cleaning-computer-57"><path class="cls-2_cleaning-computer-57 targetColor" d="M486.62,341.69c-2.3,20.17-11.04,39.09-23.31,55.37-3.27,4.33-6.77,8.47-10.48,12.42-.73.78-1.48,1.55-2.23,2.3-28.62,29.26-69,43.93-109.82,40.94-56-4.08-111.59-12.54-166.27-25.31-28.49-6.65-57.13-12.95-86.34-14.26-23.78-1.06-38.45-7.55-47.69-16.47-18.31-17.67-15.27-44.82-19.39-57.97-7.08-22.57-4.59-46.86-2.09-70.38,1.63-15.06,3.52-30.88,12.43-43.14,6.74-9.27,16.8-15.51,26.88-20.97,43.13-23.36,91.9-37.57,129.3-69.29,28.09-23.83,54.08-53.51,90.77-56.58,36.7-3.06,74.5,12.75,98.11,41.03,17.77,21.29,27.34,48.29,43.92,70.51,9.44,12.63,20.98,23.58,30.59,36.07,15.81,20.58,26.01,45.09,31.88,70.36,3.43,14.85,5.43,30.21,3.74,45.35Z" style="fill: rgb(46, 133, 85);"/><path class="cls-3_cleaning-computer-57 targetColor" d="M463.3,396.69v.38c-3.27,4.33-6.77,8.47-10.48,12.42-.73.78-1.48,1.55-2.23,2.3-28.62,29.26-69,43.93-109.82,40.94-56-4.08-111.59-12.54-166.27-25.31-15.44-3.6-30.91-7.11-46.5-9.76-13.18-2.32-26.48-3.82-39.84-4.5-14.08-.62-24.98-3.16-33.43-6.98l-.75-.34c-2.88-1.32-5.63-2.91-8.21-4.75-1.88-1.32-3.66-2.79-5.31-4.4h422.83Z" style="fill: rgb(46, 133, 85);"/><path class="cls-1_cleaning-computer-57" d="M206.17,410.8c0,3.8-3.08,6.89-6.89,6.89h-71.27c-13.18-2.32-26.48-3.82-39.84-4.5-14.08-.62-24.98-3.16-33.43-6.98l-.75-.34c1.28-1.22,2.98-1.9,4.75-1.91h140.56c3.78.01,6.84,3.06,6.86,6.84Z"/></g><g id="monitor_cleaning-computer-57"><rect class="cls-16_cleaning-computer-57 targetColor" x="192.31" y="336.93" width="117.75" height="60.14" style="fill: rgb(46, 133, 85);"/><rect class="cls-5_cleaning-computer-57" x="192.31" y="336.93" width="117.75" height="60.14"/><rect class="cls-16_cleaning-computer-57 targetColor" x="67.95" y="140.78" width="361.01" height="219.32" rx="17.7" ry="17.7" style="fill: rgb(46, 133, 85);"/><path class="cls-6_cleaning-computer-57" d="M428.99,158.48v144.25H67.95v-144.25c0-9.78,7.92-17.7,17.7-17.7h325.61c9.78-.01,17.72,7.91,17.73,17.69h0Z"/><polygon class="cls-4_cleaning-computer-57" points="182.92 141.85 67.95 302.73 157.55 302.73 278.38 141.15 182.92 141.85"/><path class="cls-9_cleaning-computer-57" d="M428.99,158.48v25.07l-89.14,119.18h-89.6l114.96-160.89,50.93-.38c7.61,2.16,12.85,9.11,12.86,17.01Z"/><path class="cls-16_cleaning-computer-57 targetColor" d="M428.99,302.73v39.67c0,9.78-7.92,17.7-17.7,17.7H85.65c-9.78,0-17.7-7.92-17.7-17.7h0v-39.67h361.04Z" style="fill: rgb(46, 133, 85);"/><circle class="cls-10_cleaning-computer-57" cx="245.79" cy="325.2" r="12.16"/></g><g id="character_cleaning-computer-57"><path class="cls-14_cleaning-computer-57" d="M94.7,317.46c-.25.28-.44.6-.57.94-.12.35-.06.73.16,1.03.25.24.57.39.92.42,1.51.32,3.05.43,4.59.32.83.04,1.64-.28,2.22-.88.25-.4.4-.86.44-1.33.08-.65.14-1.31.16-1.97.02-.13-.01-.26-.08-.37-.06-.06-.13-.11-.21-.14-1.45-.61-3.04-.79-4.59-.54-1.26.22-2.24,1.56-3.03,2.51Z"/><path class="cls-14_cleaning-computer-57" d="M113.98,317.59c-.25-.27-.44-.59-.57-.93-.12-.35-.06-.74.16-1.04.25-.24.57-.39.92-.42,1.51-.31,3.05-.41,4.59-.31.81,0,.46.88.95,1.54.99,1.05,1.9,2.17,2.73,3.35.09.65-4.22.6-5.74.33-1.27-.21-2.25-1.58-3.04-2.51Z"/><path class="cls-12_cleaning-computer-57" d="M96.28,314.65c-.07.42.06.84.34,1.15.23.15.49.22.76.22,1.58.13,3.18.16,4.76.09.29.02.58-.04.83-.2.3-.31.45-.72.44-1.15.76-11.8,2.05-23.58,3.86-35.26,2,9.89,3.53,19.86,4.59,29.9.07,1.81.46,3.59,1.15,5.26.13.25.18,1.96.45,2.07.21.06.43.06.64,0,1.91-.24,4.04-.41,5.95-.65-1.87-6.8-.93-15.51-.76-22.56.22-9.37-1.15-18.77-.36-28.11l-18.5.94c-.96,0-3.06.76-3.74.07-.81,12.47-.25,25.25-.38,37.68.03,3.54.01,7.05-.02,10.55Z"/><path class="cls-15_cleaning-computer-57" d="M84.95,247.49c-.32.19-.62.42-.87.69-.47.5-.77,1.13-.85,1.81-.07.69.19,1.36.69,1.84.52.42,1.17.62,1.84.56.47,0,.92-.15,1.3-.42.55-.56.84-1.32.83-2.1.14-.9,0-1.83-.39-2.65-.3-.52-.53-.44-1.04-.3-.52.13-1.02.32-1.49.57Z"/><rect class="cls-16_cleaning-computer-57 targetColor" x="131.86" y="201.42" width="15.83" height="10.31" transform="translate(-5.43 3.78) rotate(-1.52)" style="fill: rgb(46, 133, 85);"/><rect class="cls-11_cleaning-computer-57" x="138.42" y="207.72" width="2.16" height="9.7" rx="1.02" ry="1.02"/><path class="cls-14_cleaning-computer-57" d="M109.06,225.1c-.21.69-.11,1.44.28,2.05.27.27.63.45,1.01.49.5.09,1.02.12,1.53.07.49-.01.97-.09,1.43-.24.47-.16.87-.47,1.15-.87.23-.46.35-.96.36-1.47l.23-2.5c.04-.22.04-.44,0-.65-.22-.43-.66-.72-1.15-.75-.82-.11-1.65-.07-2.46.11-.48.09-.96.21-1.43.33s-.79,0-.79.53c.02.97-.03,1.93-.15,2.89Z"/><path class="cls-13_cleaning-computer-57" d="M109.31,211.08c.16-.02.31-.07.46-.13.16-.12.29-.28.38-.46.55-.75,1.38-1.26,2.3-1.4.92-.13,1.85-.13,2.77,0,1.15-.05,2.27.3,3.19.99.39.42.71.9.94,1.42.39.69.65,1.44.77,2.22.17,1.76-1.02,3.31-1.71,4.94-.38,1.29-.93,2.52-1.63,3.67-.92,1.1-2.27,1.75-3.71,1.77-1.42.02-2.82-.38-4.02-1.15-.66-.35-1.17-.92-1.46-1.61-.13-.47-.17-.95-.1-1.43.09-1.85.13-3.72.29-5.58.1-1.07.28-2.95,1.54-3.25Z"/><path class="cls-16_cleaning-computer-57 targetColor" d="M106.04,228.35c.21-1.15.51-2.46,1.54-3.01s2.18-.14,3.28.08c.85.17,1.72.23,2.58.17.88,0,1.95-.14,2.46.59.37.55.28,1.42.86,1.74.32.11.67.11.99,0,2.48-.41,4.93-1,7.32-1.78,2.4-.78,4.58-2.1,6.39-3.86,1.08-1.16,2.03-2.44,2.82-3.81.17-.34.42-.63.71-.87.7-.31,1.52-.25,2.17.16.68.35,1.31.8,1.85,1.34.11.1.19.23.24.37.03.2-.02.4-.13.57-2.49,5.19-5.17,10.61-9.84,13.99-1.23.88-2.57,1.62-3.77,2.55-1.57,1.24-2.84,2.81-3.74,4.59-2.11,4.18-1.35,9.18-.69,13.85.35,1.62.44,3.29.26,4.94-.38,1.6-1.1,3.11-2.11,4.41-.58.99-1.41,1.81-2.4,2.39-.75.3-1.55.48-2.36.52-4.71.63-9.47.85-14.22.63-1.74-.14-3.77-.59-4.51-2.17-.35-1.05-.38-2.19-.08-3.26.83-4.76,1.29-9.58,1.38-14.42-.83.57-1,1.71-1.48,2.61-.77,1.3-2.09,2.18-3.58,2.41-1.47.21-2.96.21-4.43,0-.29,0-.57-.1-.8-.28-.2-.24-.31-.55-.3-.86-.1-1.27-.05-2.55.17-3.8.05-.44.18-.86.4-1.24.65-.73,1.5-1.26,2.44-1.53,1.74-.91,3.13-2.38,3.94-4.17.79-1.81,1.31-3.72,1.55-5.67.29-1.79.6-3.77,2-4.91.95-.66,2.05-1.07,3.2-1.21,2.14-.45,3.77-.67,5.88-1.08Z" style="fill: rgb(46, 133, 85);"/><path class="cls-12_cleaning-computer-57" d="M67.73,306.5h21.89s-2.03,12.63-2.93,12.86-15.81,0-15.81,0l-3.16-12.86Z"/><circle class="cls-12_cleaning-computer-57" cx="78.81" cy="306.67" r="1.96"/><path class="cls-12_cleaning-computer-57" d="M78.29,305.89l11.95,11.01s1.15.72,1.04-.6l-12.27-10.81s-.91-.46-.72.4Z"/><path class="cls-14_cleaning-computer-57" d="M136.69,212.29c-.02-.16.01-.32.09-.46.07-.09.17-.15.28-.2.52-.35,1.03-.74,1.5-1.15.49-.41,1.13-.59,1.76-.48.18.04.34.13.46.26.07.12.12.24.15.38.18.71.25,1.45.21,2.18.02.5-.16.98-.52,1.33-.2.14-.44.22-.62.36-.41.43-.62,1.01-.59,1.61-.06.85-.16,1.69-.31,2.53-.01.2-.1.4-.24.54-.24.13-.52.13-.76,0-.61-.29-2.09-.95-1.91-1.79.1-.46.33-.88.41-1.35.1-.57.15-1.15.15-1.73,0-.7-.03-1.4-.07-2.02Z"/><path class="cls-11_cleaning-computer-57" d="M130.44,199.65h18.34c.67,0,1.21.54,1.21,1.21h0c0,.67-.54,1.21-1.21,1.21h-18.34c-.67,0-1.21-.54-1.21-1.21h0c0-.67.54-1.21,1.21-1.21Z"/><rect class="cls-11_cleaning-computer-57" x="138.97" y="201.22" width=".8" height="7.23"/><path class="cls-12_cleaning-computer-57" d="M48.76,319.48h130.33c1.67,0,3.03,1.36,3.03,3.03h0c0,1.67-1.36,3.03-3.03,3.03H48.76c-1.67,0-3.03-1.36-3.03-3.03h0c0-1.67,1.36-3.03,3.03-3.03Z"/><path class="cls-12_cleaning-computer-57" d="M54.79,266.71v139.47c-3.15-1.4-6.15-3.1-8.95-5.1v-134.37c0-2.47,2-4.48,4.47-4.48,2.47,0,4.48,2,4.48,4.47h0Z"/><rect class="cls-12_cleaning-computer-57" x="172.66" y="262.25" width="8.95" height="150.61" rx="4.48" ry="4.48"/><path class="cls-8_cleaning-computer-57" d="M54.79,266.71v139.47c-3.15-1.4-6.15-3.1-8.95-5.1v-134.37c0-2.47,2-4.48,4.47-4.48,2.47,0,4.48,2,4.48,4.47h0Z"/><rect class="cls-7_cleaning-computer-57" x="172.66" y="262.25" width="8.95" height="150.61" rx="4.48" ry="4.48"/><path class="cls-12_cleaning-computer-57" d="M50.99,346.32l22.38-22.38c.7-.7,1.84-.7,2.55,0h0c.7.7.7,1.84,0,2.55l-22.38,22.38c-.7.7-1.84.7-2.55,0h0c-.7-.7-.7-1.84,0-2.55Z"/><path class="cls-12_cleaning-computer-57" d="M153.79,323.95l22.38,22.38c.7.7.7,1.84,0,2.55h0c-.7.7-1.84.7-2.55,0l-22.38-22.38c-.7-.7-.7-1.84,0-2.55h0c.7-.7,1.84-.7,2.55,0Z"/></g><g id="blink_cleaning-computer-57"><path class="cls-16_cleaning-computer-57 targetColor" d="M172.84,127.97s3.6,17.98-14.82,24.22c0,0,21.56-8.26,27.85,8.87,0,0-4.89-20.37,11.82-26.21,0,0-19.96,12.35-24.85-6.89Z" style="fill: rgb(46, 133, 85);"/><path class="cls-16_cleaning-computer-57 targetColor" d="M131.31,131.28s-.96,12.16-11.8,15.85c0,0,14.8-5.81,16.23,6.69,0,0-2.3-13.61,9.48-14.8,0,0-13.73,5.56-13.91-7.75Z" style="fill: rgb(46, 133, 85);"/><path class="cls-16_cleaning-computer-57 targetColor" d="M179.9,171.26s-1.02,13.29-12.48,17.34c0,0,15.65-6.36,17.22,7.31,0,0-2.47-14.92,10.03-16.17-.05,0-14.58,6.06-14.77-8.48Z" style="fill: rgb(46, 133, 85);"/></g></svg>